<?xml version="1.0" encoding="UTF-8" standalone="no"?>
<!DOCTYPE svg PUBLIC "-//W3C//DTD SVG 1.1//EN" "http://www.w3.org/Graphics/SVG/1.1/DTD/svg11.dtd">
<svg width="100%" height="100%" viewBox="0 0 640 200" version="1.1" xmlns="http://www.w3.org/2000/svg" xmlns:xlink="http://www.w3.org/1999/xlink" xml:space="preserve" xmlns:serif="http://www.serif.com/" style="fill-rule:evenodd;clip-rule:evenodd;stroke-linejoin:round;stroke-miterlimit:2;">
    <g transform="matrix(10.5763,0,0,10.5763,-1140.26,-3520.31)">
        <g transform="matrix(12,0,0,12,121,349)">
            <path d="M0.062,-0.868L0.062,-0L0.152,-0L0.152,-0.215C0.152,-0.3 0.152,-0.402 0.268,-0.402C0.36,-0.402 0.371,-0.348 0.371,-0.268L0.371,-0L0.461,-0L0.461,-0.279C0.461,-0.393 0.427,-0.482 0.295,-0.482C0.238,-0.482 0.182,-0.455 0.154,-0.405L0.152,-0.405L0.152,-0.868L0.062,-0.868Z" style="fill-rule:nonzero;"/>
        </g>
        <g transform="matrix(12,0,0,12,127.276,349)">
            <path d="M0.473,-0.219L0.473,-0.233C0.473,-0.372 0.403,-0.482 0.254,-0.482C0.103,-0.482 0.026,-0.374 0.026,-0.23C0.026,-0.092 0.113,0.016 0.256,0.016C0.347,0.016 0.429,-0.031 0.473,-0.112L0.397,-0.155C0.363,-0.099 0.326,-0.064 0.257,-0.064C0.171,-0.064 0.117,-0.139 0.116,-0.219L0.473,-0.219ZM0.121,-0.287C0.132,-0.354 0.184,-0.404 0.254,-0.404C0.326,-0.404 0.372,-0.357 0.383,-0.287L0.121,-0.287Z" style="fill-rule:nonzero;"/>
        </g>
        <g transform="matrix(12,0,0,12,133.132,349)">
            <path d="M0.264,-0.064C0.169,-0.064 0.116,-0.146 0.116,-0.234C0.116,-0.321 0.171,-0.402 0.264,-0.402C0.361,-0.402 0.416,-0.325 0.416,-0.234C0.416,-0.142 0.362,-0.064 0.264,-0.064ZM0.501,-0.468L0.411,-0.468L0.411,-0.39L0.409,-0.39C0.372,-0.446 0.316,-0.482 0.247,-0.482C0.111,-0.482 0.026,-0.365 0.026,-0.237C0.026,-0.103 0.107,0.016 0.25,0.016C0.317,0.016 0.373,-0.02 0.409,-0.073L0.411,-0.073L0.411,-0L0.501,-0L0.501,-0.468Z" style="fill-rule:nonzero;"/>
        </g>
        <g transform="matrix(12,0,0,12,139.804,349)">
            <path d="M0.264,-0.064C0.169,-0.064 0.116,-0.146 0.116,-0.234C0.116,-0.321 0.171,-0.402 0.264,-0.402C0.361,-0.402 0.416,-0.325 0.416,-0.234C0.416,-0.142 0.362,-0.064 0.264,-0.064ZM0.411,-0L0.501,-0L0.501,-0.868L0.411,-0.868L0.411,-0.39L0.409,-0.39C0.372,-0.446 0.316,-0.482 0.246,-0.482C0.111,-0.482 0.026,-0.365 0.026,-0.237C0.026,-0.103 0.106,0.016 0.25,0.016C0.316,0.016 0.373,-0.02 0.409,-0.073L0.411,-0.073L0.411,-0Z" style="fill-rule:nonzero;"/>
        </g>
        <g transform="matrix(12,0,0,12,146.476,349)">
            <rect x="0.066" y="-0.868" width="0.09" height="0.868" style="fill-rule:nonzero;"/>
        </g>
        <g transform="matrix(12,0,0,12,149.14,349)">
            <path d="M0.473,-0.219L0.473,-0.233C0.473,-0.372 0.403,-0.482 0.254,-0.482C0.103,-0.482 0.026,-0.374 0.026,-0.23C0.026,-0.092 0.113,0.016 0.256,0.016C0.347,0.016 0.429,-0.031 0.473,-0.112L0.397,-0.155C0.363,-0.099 0.326,-0.064 0.257,-0.064C0.171,-0.064 0.117,-0.139 0.116,-0.219L0.473,-0.219ZM0.121,-0.287C0.132,-0.354 0.184,-0.404 0.254,-0.404C0.326,-0.404 0.372,-0.357 0.383,-0.287L0.121,-0.287Z" style="fill-rule:nonzero;"/>
        </g>
        <g transform="matrix(12,0,0,12,154.996,349)">
            <path d="M0.323,-0.4C0.298,-0.451 0.252,-0.482 0.195,-0.482C0.119,-0.482 0.057,-0.422 0.057,-0.346C0.057,-0.282 0.095,-0.256 0.147,-0.228L0.235,-0.181C0.256,-0.167 0.268,-0.155 0.268,-0.13C0.268,-0.09 0.235,-0.064 0.197,-0.064C0.154,-0.064 0.131,-0.089 0.112,-0.124L0.035,-0.089C0.06,-0.023 0.129,0.016 0.197,0.016C0.284,0.016 0.358,-0.05 0.358,-0.139C0.358,-0.213 0.305,-0.247 0.25,-0.272C0.195,-0.297 0.141,-0.315 0.141,-0.356C0.141,-0.382 0.165,-0.402 0.19,-0.402C0.216,-0.402 0.239,-0.384 0.25,-0.361L0.323,-0.4Z" style="fill-rule:nonzero;"/>
        </g>
        <g transform="matrix(12,0,0,12,159.604,349)">
            <path d="M0.323,-0.4C0.298,-0.451 0.252,-0.482 0.195,-0.482C0.119,-0.482 0.057,-0.422 0.057,-0.346C0.057,-0.282 0.095,-0.256 0.147,-0.228L0.235,-0.181C0.256,-0.167 0.268,-0.155 0.268,-0.13C0.268,-0.09 0.235,-0.064 0.197,-0.064C0.154,-0.064 0.131,-0.089 0.112,-0.124L0.035,-0.089C0.06,-0.023 0.129,0.016 0.197,0.016C0.284,0.016 0.358,-0.05 0.358,-0.139C0.358,-0.213 0.305,-0.247 0.25,-0.272C0.195,-0.297 0.141,-0.315 0.141,-0.356C0.141,-0.382 0.165,-0.402 0.19,-0.402C0.216,-0.402 0.239,-0.384 0.25,-0.361L0.323,-0.4Z" style="fill-rule:nonzero;"/>
        </g>
        <g transform="matrix(12,0,0,12,164.212,349)">
            <path d="M0.145,-0.1C0.113,-0.1 0.087,-0.073 0.087,-0.042C0.087,-0.01 0.113,0.016 0.145,0.016C0.177,0.016 0.203,-0.01 0.203,-0.042C0.203,-0.073 0.177,-0.1 0.145,-0.1Z" style="fill-rule:nonzero;"/>
        </g>
    </g>
    <g transform="matrix(13.6448,0,0,13.6448,-2506.55,-3712.2)">
        <path d="M188.563,281.75L188.563,284.75C188.563,285.165 188.227,285.5 187.813,285.5C187.398,285.5 187.063,285.165 187.063,284.75L187.063,279.521L186.392,280.637C186.179,280.991 185.717,281.105 185.363,280.892C185.009,280.679 184.895,280.217 185.108,279.863L186.474,277.59C186.882,276.913 187.613,276.498 188.403,276.498L189.099,276.498C189.889,276.498 190.62,276.913 191.028,277.59L192.395,279.863C192.608,280.217 192.493,280.679 192.139,280.892C191.785,281.105 191.323,280.991 191.11,280.637L190.438,279.521L190.438,284.75C190.438,285.165 190.102,285.5 189.688,285.5C189.273,285.5 188.938,285.165 188.938,284.75L188.938,281.75L188.563,281.75Z"/>
    </g>
    <g transform="matrix(13.6448,0,0,13.6448,-2506.55,-3712.2)">
        <path d="M187.635,274.772L187.411,274.801C187.404,274.743 187.4,274.684 187.4,274.625C187.4,274.566 187.404,274.507 187.411,274.449L187.635,274.478C187.628,274.526 187.625,274.576 187.625,274.625C187.625,274.675 187.628,274.724 187.635,274.772ZM187.711,274.194L187.503,274.108C187.548,273.999 187.607,273.897 187.679,273.803L187.857,273.94C187.798,274.018 187.748,274.104 187.711,274.194ZM188.065,273.732L187.928,273.554C187.975,273.518 188.024,273.486 188.075,273.456C188.126,273.426 188.179,273.4 188.233,273.378L188.319,273.586C188.274,273.604 188.23,273.626 188.188,273.651C188.145,273.675 188.104,273.703 188.065,273.732ZM188.603,273.51L188.574,273.286C188.691,273.271 188.809,273.271 188.926,273.286L188.897,273.51C188.799,273.497 188.701,273.497 188.603,273.51ZM189.181,273.586L189.267,273.378C189.321,273.4 189.374,273.426 189.425,273.456C189.476,273.486 189.525,273.518 189.572,273.554L189.435,273.732C189.396,273.703 189.355,273.675 189.313,273.651C189.27,273.626 189.226,273.604 189.181,273.586ZM189.643,273.94L189.821,273.803C189.893,273.897 189.952,273.999 189.997,274.108L189.789,274.194C189.752,274.104 189.702,274.018 189.643,273.94ZM189.865,274.478L190.089,274.449C190.096,274.507 190.1,274.566 190.1,274.625C190.1,274.684 190.096,274.743 190.089,274.801L189.865,274.772C189.872,274.724 189.875,274.675 189.875,274.625C189.875,274.576 189.872,274.526 189.865,274.478ZM189.789,275.056L189.997,275.142C189.952,275.251 189.893,275.353 189.821,275.447L189.643,275.31C189.702,275.232 189.752,275.146 189.789,275.056ZM189.435,275.518L189.572,275.696C189.525,275.732 189.476,275.764 189.425,275.794C189.374,275.824 189.321,275.85 189.267,275.872L189.181,275.664C189.226,275.646 189.27,275.624 189.313,275.599C189.355,275.575 189.396,275.547 189.435,275.518ZM188.897,275.74L188.926,275.964C188.809,275.979 188.691,275.979 188.574,275.964L188.603,275.74C188.701,275.753 188.799,275.753 188.897,275.74ZM188.319,275.664L188.233,275.872C188.179,275.85 188.126,275.824 188.075,275.794C188.024,275.764 187.975,275.732 187.928,275.696L188.065,275.518C188.104,275.547 188.145,275.575 188.188,275.599C188.23,275.624 188.274,275.646 188.319,275.664ZM187.857,275.31L187.679,275.447C187.607,275.353 187.548,275.251 187.503,275.142L187.711,275.056C187.748,275.146 187.798,275.232 187.857,275.31Z" style="fill:rgb(153,153,153);"/>
    </g>
</svg>
